<svg xmlns="http://www.w3.org/2000/svg" version="1.1" width="512" height="512" viewBox="580 440 1100 820">

<path d="M0 0 C1.46453691 0.24403611 2.92937286 0.48628579 4.39453125 0.7265625 C13.1183108 2.20383681 21.57194916 4.31480395 30 7 C30.7317041 7.23170898 31.4634082 7.46341797 32.21728516 7.70214844 C63.45013186 17.72400344 91.89138896 34.12025104 116.53320312 55.71679688 C117.87290664 56.88881447 119.22490646 58.04673825 120.578125 59.203125 C168.24474934 100.71921717 194.75321416 163.18954769 202 225 C202.14574463 226.23713745 202.14574463 226.23713745 202.29443359 227.49926758 C203.22729939 236.80068256 203.15120132 246.11533318 203.13037109 255.45288086 C203.12503077 258.29611593 203.13033333 261.13919171 203.13671875 263.98242188 C203.14695234 281.04191343 201.88979988 297.39007267 198.875 314.1875 C198.71872131 315.06460632 198.56244263 315.94171265 198.40142822 316.84539795 C186.14789622 385.22391591 157.99914571 448.65681168 119 506 C118.60232422 506.5868457 118.20464844 507.17369141 117.79492188 507.77832031 C111.37204712 517.24593188 104.85950227 526.65402773 98.01171875 535.8203125 C96.13594345 538.34780612 94.48615612 540.83396013 93.01953125 543.6171875 C90.9020083 547.16595731 89.61334506 548.94633932 86 551 C78.97312684 552.01188072 71.86559335 551.12148909 64.85595703 550.31835938 C61.15571428 549.90588574 57.46720288 549.703254 53.75 549.5 C50.3741676 549.26486739 47.25648164 548.93042332 44 548 C45.72125809 544.1080442 48.22084451 540.82901043 50.75 537.4375 C51.23098145 536.78692627 51.71196289 536.13635254 52.20751953 535.46606445 C53.25267036 534.05263347 54.29910887 532.64015396 55.34667969 531.22851562 C59.99217168 524.96684243 64.61461625 518.68809878 69.23144531 512.40527344 C70.39597016 510.82149392 71.56194924 509.23878248 72.72949219 507.65722656 C79.85622762 497.99253825 86.57051374 488.20751972 92.80712891 477.94580078 C93.99221125 476.01270495 95.20020403 474.09624392 96.41796875 472.18359375 C107.96866871 454.02195636 118.26547731 435.18883669 128 416 C128.36013184 415.30116699 128.72026367 414.60233398 129.09130859 413.88232422 C134.38721642 403.55096304 138.52780402 392.76201214 142.6875 381.9375 C143.10224075 380.86222549 143.10224075 380.86222549 143.52536011 379.76522827 C147.00354597 370.71609478 150.16390363 361.622493 152.97558594 352.34399414 C153.78429777 349.70411666 154.63701177 347.10024385 155.5625 344.5 C168.1035374 306.52657949 172.42830972 260.54502664 166 221 C165.84402344 220.03497559 165.68804688 219.06995117 165.52734375 218.07568359 C159.98734885 184.90239931 149.03461254 155.47232833 133 126 C133.25394531 126.99515625 133.50789063 127.9903125 133.76953125 129.015625 C138.48748453 147.94863968 140.53404723 166.24101309 140.375 185.75 C140.36851944 187.26370178 140.36851944 187.26370178 140.36190796 188.8079834 C140.28693955 203.75848861 139.69982323 218.26555009 137 233 C136.82839355 234.01223633 136.65678711 235.02447266 136.47998047 236.06738281 C130.46070424 271.55905804 119.66179286 306.66729888 104.4375 339.3125 C103.91792725 340.42987549 103.39835449 341.54725098 102.86303711 342.69848633 C93.70954551 362.26977918 83.86532042 381.32385512 73 400 C72.64391663 400.61844788 72.28783325 401.23689575 71.92095947 401.87408447 C65.69682248 412.68243281 59.09042773 423.15570582 52.125 433.5 C51.15132261 434.95263368 50.17777242 436.40535263 49.2043457 437.8581543 C39.8213636 451.83782155 30.22562242 465.61966428 20 479 C19.21109375 480.03382813 18.4221875 481.06765625 17.609375 482.1328125 C9.29302288 493.00082874 0.8806682 503.79518849 -7.82421875 514.35546875 C-9.29429584 516.14225904 -10.75502972 517.93677139 -12.20703125 519.73828125 C-16.8441809 525.47990087 -21.65450166 531.00317182 -26.65234375 536.43359375 C-28.70324098 538.67558956 -30.70477533 540.94791029 -32.6875 543.25 C-35.38622537 546.35953837 -38.2335362 549.25849206 -41.17260742 552.13964844 C-42.87140506 553.86908571 -44.43616334 555.64892803 -46 557.5 C-51.3478669 563.65146172 -57.2311709 569.28839746 -63.02978516 575.00927734 C-68.33100491 580.24582732 -73.51935842 585.49845067 -78.36376953 591.16796875 C-81.2632306 594.41439607 -84.4745068 597.31907583 -87.6875 600.25 C-88.98364146 601.44209046 -90.27923039 602.63478201 -91.57421875 603.828125 C-92.17419678 604.37533203 -92.7741748 604.92253906 -93.39233398 605.48632812 C-94.72183821 606.73810127 -95.9743463 608.0710899 -97.203125 609.421875 C-99 611 -99 611 -100.97265625 611.3125 C-107.34791947 610.35918961 -113.02106155 608.37192629 -119 606 C-120.56724343 605.39202937 -122.13499153 604.78535878 -123.703125 604.1796875 C-128.13967852 602.46391256 -132.5707945 600.73465034 -137 599 C-137 596 -137 596 -134.5078125 593.3984375 C-133.38762548 592.38238719 -132.25945574 591.37509368 -131.125 590.375 C-130.52856689 589.83649414 -129.93213379 589.29798828 -129.31762695 588.74316406 C-126.71897792 586.40121042 -124.0975367 584.08592878 -121.47265625 581.7734375 C-113.96307391 575.12392698 -106.92872537 568.0219064 -99.87768555 560.89355469 C-95.99271105 556.97574657 -92.08084429 553.08518738 -88.1640625 549.19921875 C-86.31763651 547.36205135 -84.47128454 545.52480955 -82.625 543.6875 C-81.24441406 542.31948242 -81.24441406 542.31948242 -79.8359375 540.92382812 C-75.22980801 536.3341491 -70.7510875 531.70566443 -66.52001953 526.76733398 C-64.29023427 524.17475199 -61.95573877 521.68971955 -59.625 519.1875 C-55.37514703 514.58821468 -51.36423497 509.8491206 -47.4375 504.96875 C-44.57073197 501.47717355 -41.60206682 498.08490453 -38.625 494.6875 C-33.01479315 488.25915488 -27.68531918 481.66118789 -22.47607422 474.90576172 C-20.88128521 472.84672715 -19.27187709 470.7997111 -17.66015625 468.75390625 C3.01022139 442.46842672 21.86635749 414.71790599 39 386 C39.58555664 385.02208496 40.17111328 384.04416992 40.77441406 383.03662109 C57.01085633 355.78960146 72.05316101 327.33513249 82.23339844 297.22851562 C83.678895 293.0264479 85.21606238 288.85791774 86.75 284.6875 C87.04406738 283.88046631 87.33813477 283.07343262 87.64111328 282.24194336 C87.91938965 281.48534424 88.19766602 280.72874512 88.484375 279.94921875 C88.72897461 279.28237061 88.97357422 278.61552246 89.22558594 277.9284668 C90 276 90 276 91.02294922 274.02075195 C92.03834263 271.92069916 92.61061529 269.98589283 93.1484375 267.71875 C93.34727539 266.88577393 93.54611328 266.05279785 93.75097656 265.19458008 C93.9569043 264.30536865 94.16283203 263.41615723 94.375 262.5 C94.59124023 261.58178467 94.80748047 260.66356934 95.03027344 259.7175293 C96.76518909 252.25115037 98.3084616 244.75208423 99.74365234 237.22265625 C100.90193809 231.19612382 100.90193809 231.19612382 102 229 C102.2275015 227.12943209 102.40962811 225.25314042 102.5625 223.375 C102.68818359 221.87066406 102.68818359 221.87066406 102.81640625 220.3359375 C102.87699219 219.56507813 102.93757813 218.79421875 103 218 C102.86013672 218.53665283 102.72027344 219.07330566 102.57617188 219.6262207 C99.05798001 232.94529193 94.73549522 245.47998236 89 258 C88.60184082 258.87849609 88.20368164 259.75699219 87.79345703 260.66210938 C76.12509515 286.25372031 61.91570062 309.88553877 46 333 C45.33871094 333.96437988 44.67742187 334.92875977 43.99609375 335.92236328 C36.95204634 346.17564687 29.76881987 356.28106541 22 366 C21.50677246 366.61794434 21.01354492 367.23588867 20.50537109 367.87255859 C10.68296093 380.14226259 0.56663617 392.14146175 -9.99609375 403.78125 C-11.81311982 405.79308393 -13.59944392 407.82660434 -15.375 409.875 C-21.91460714 417.37273563 -28.58442984 424.79650908 -35.7578125 431.6953125 C-37.12270644 433.00136369 -37.12270644 433.00136369 -38 435 C-38.66 435 -39.32 435 -40 435 C-40.25220306 435.57719284 -40.50440613 436.15438568 -40.76425171 436.74906921 C-42.15505513 439.28243484 -43.72704774 440.97424031 -45.77197266 443.01489258 C-46.54683014 443.79282669 -47.32168762 444.5707608 -48.12002563 445.37226868 C-48.9595578 446.20461533 -49.79908997 447.03696198 -50.6640625 447.89453125 C-51.53010101 448.76011154 -52.39613953 449.62569183 -53.28842163 450.51750183 C-55.1236736 452.3497322 -56.96135587 454.179531 -58.80126953 456.00708008 C-61.59848899 458.78616091 -64.3877413 461.57304149 -67.17578125 464.36132812 C-68.9630728 466.14369945 -70.75081893 467.92561508 -72.5390625 469.70703125 C-73.36644928 470.53330521 -74.19383606 471.35957916 -75.04629517 472.21089172 C-79.32048354 476.45072672 -83.65730988 480.54889431 -88.24081421 484.45365906 C-90.07472195 486.0656813 -91.79081454 487.75697229 -93.5 489.5 C-96.48152028 492.52863234 -99.60193928 495.33165681 -102.8203125 498.10546875 C-106.1286102 500.98096048 -109.36291343 503.93751254 -112.60546875 506.88671875 C-113.79076172 507.93279297 -113.79076172 507.93279297 -115 509 C-115.80050781 509.74894531 -116.60101562 510.49789062 -117.42578125 511.26953125 C-120.65544967 513.44061336 -122.14981892 513.26999625 -126 513 C-128.29591057 512.43550432 -130.5713316 511.78359533 -132.82421875 511.06640625 C-133.45229935 510.86901352 -134.08037994 510.67162079 -134.72749329 510.46824646 C-136.71679834 509.84098699 -138.7020851 509.20195267 -140.6875 508.5625 C-142.03165399 508.13658933 -143.37605318 507.71145166 -144.72070312 507.28710938 C-149.15579585 505.88421735 -153.58696452 504.47101183 -158 503 C-156.4366537 499.03150556 -153.6786566 496.58453814 -150.5625 493.8125 C-150.02898926 493.32982666 -149.49547852 492.84715332 -148.94580078 492.34985352 C-145.50851778 489.26645327 -141.97836367 486.32635932 -138.375 483.4375 C-133.70898628 479.68454795 -129.52119632 475.62418675 -125.33984375 471.34375 C-122.65065861 468.6500754 -119.82017721 466.18352508 -116.9296875 463.7109375 C-114.24083452 461.32689376 -111.74522455 458.77183972 -109.25 456.1875 C-107.4409414 454.42869303 -105.61235862 452.81332756 -103.69140625 451.18359375 C-97.49055486 445.79535683 -91.76011247 439.90878011 -85.96362305 434.09399414 C-83.94235732 432.0673702 -81.91580426 430.04614453 -79.88867188 428.02539062 C-71.33985815 419.48370535 -71.33985815 419.48370535 -63.2746582 410.48852539 C-61.66273968 408.60615281 -59.92187704 406.89253665 -58.125 405.1875 C-55.12571069 402.23408892 -52.44364659 399.16032564 -49.8125 395.875 C-46.26432327 391.44741286 -42.52403767 387.3010903 -38.625 383.1875 C-33.78258434 378.05829299 -29.31232541 372.76273118 -25.01733398 367.16943359 C-22.02239144 363.2733531 -18.90697285 359.52412901 -15.6875 355.8125 C-9.26934438 348.34775529 -3.52683568 340.39579384 2.24023438 332.42431641 C3.93456581 330.09014449 5.64440703 327.76825446 7.359375 325.44921875 C15.09501157 314.94181826 22.18840893 304.12609127 29 293 C29.40702148 292.3390332 29.81404297 291.67806641 30.23339844 290.99707031 C32.87691518 286.69609295 35.4606375 282.36323869 38 278 C38.38333496 277.34306152 38.76666992 276.68612305 39.16162109 276.00927734 C50.73322731 256.04174908 60.43033126 235.31626641 68.09960938 213.54882812 C68.86441858 211.38380423 69.65218646 209.22993425 70.453125 207.078125 C76.48132181 190.2144352 81.07781314 171.70734795 81.23828125 153.76171875 C81.246353 152.88207962 81.25442474 152.00244049 81.26274109 151.09614563 C81.27651926 149.23623586 81.28726919 147.37630146 81.29516602 145.51635742 C81.3066018 143.65006884 81.32691761 141.78381075 81.35668945 139.91772461 C81.63881044 122.1787767 79.25758378 106.36139501 72 90 C71.55914063 88.99582031 71.11828125 87.99164062 70.6640625 86.95703125 C59.3645939 62.82860798 39.27340135 48.1399151 14.8125 39.25 C12.54527795 38.48915296 10.2745366 37.73869296 8 37 C6.9790625 36.64164062 5.958125 36.28328125 4.90625 35.9140625 C-33.90364787 22.87942508 -79.19545267 29.35487204 -115.48242188 47.01928711 C-130.59431531 54.68635069 -144.11729397 64.39760804 -156.59765625 75.8203125 C-158.69493958 77.72321347 -160.83321151 79.5526306 -163 81.375 C-195.93548007 110.37396851 -216.88110053 156.52533644 -225 199 C-225.22429688 200.15757812 -225.44859375 201.31515625 -225.6796875 202.5078125 C-229.36084555 225.85543135 -230.6000275 255.65501959 -217 276 C-213.63527111 279.82492724 -210.62685359 280.79852623 -205.625 281.41796875 C-198.50297387 281.69711596 -193.77404466 281.1993052 -188 277 C-187.34 277 -186.68 277 -186 277 C-185.731875 276.319375 -185.46375 275.63875 -185.1875 274.9375 C-184 272 -184 272 -182.375 269.125 C-178.13605544 259.17645664 -181.27081162 246.94795073 -184 237 C-184.26683594 235.85273437 -184.53367187 234.70546875 -184.80859375 233.5234375 C-189.2258496 215.18691764 -197.55061463 197.67407805 -208 182 C-207.71347653 175.80790954 -205.47724287 170.35687502 -203.25 164.625 C-202.91484375 163.73039063 -202.5796875 162.83578125 -202.234375 161.9140625 C-199.95466751 155.97300662 -197.24095575 150.47476859 -194 145 C-193.34 145 -192.68 145 -192 145 C-190.77001953 146.33496094 -190.77001953 146.33496094 -189.3828125 148.234375 C-188.86444824 148.94295654 -188.34608398 149.65153809 -187.81201172 150.3815918 C-187.25529785 151.1631665 -186.69858398 151.94474121 -186.125 152.75 C-185.25705811 153.96586792 -185.25705811 153.96586792 -184.37158203 155.20629883 C-160.3787546 189.28813306 -140.60203837 230.11903002 -146.5390625 272.8828125 C-147.19289158 275.69212206 -147.97605308 278.30609673 -149 281 C-149.29003906 281.80050781 -149.58007812 282.60101562 -149.87890625 283.42578125 C-154.15081972 294.06087965 -161.72110084 302.33682519 -171.99609375 307.5078125 C-174.97452205 308.77506734 -177.94552691 309.92885268 -181 311 C-181.64654541 311.25966553 -182.29309082 311.51933105 -182.95922852 311.78686523 C-189.27004978 314.17495429 -195.10411909 314.5041448 -201.8125 314.4375 C-202.87621826 314.42992676 -203.93993652 314.42235352 -205.03588867 314.41455078 C-212.64600175 314.25460823 -219.11533166 313.42637281 -226 310 C-226.94746094 309.56429688 -227.89492188 309.12859375 -228.87109375 308.6796875 C-244.7524688 300.79287167 -253.40777213 285.28039585 -259 269 C-273.02652654 220.38751761 -258.25392881 163.24661197 -234.89160156 119.83300781 C-227.70276677 106.86633529 -219.81746509 94.2814002 -210.44311523 82.77539062 C-209.31458026 81.38701195 -208.19965249 79.98757012 -207.09008789 78.58398438 C-201.40111521 71.47102577 -195.27027113 64.90915136 -188.8125 58.5 C-188.30799316 57.99731598 -187.80348633 57.49463196 -187.28369141 56.97671509 C-179.61861842 49.35811085 -171.85384569 42.22249569 -163 36 C-162.46165527 35.6066748 -161.92331055 35.21334961 -161.36865234 34.80810547 C-137.95141937 17.71948416 -111.29482709 6.66774506 -83 1 C-82.04335449 0.80245117 -81.08670898 0.60490234 -80.10107422 0.40136719 C-53.79211686 -4.86645944 -26.37434552 -4.82190251 0 0 Z " fill="#B1A58F" transform="translate(1217,468)"/>
<path d="M0 0 C1.37986084 0.24943359 1.37986084 0.24943359 2.78759766 0.50390625 C39.07686416 7.35213407 74.86936734 23.98818271 103 48 C102.42883347 52.48533716 100.55521623 55.82538949 98.25 59.625 C94.73272694 65.57937638 91.70501955 71.62759817 89 78 C84.85081628 77.4368965 82.43697999 75.15495453 79.25 72.5625 C60.75828356 57.96003962 39.2536894 46.6396317 17 39 C16.33145996 38.76587402 15.66291992 38.53174805 14.97412109 38.29052734 C-12.08336344 28.99303756 -45.07321901 25.58174051 -73 33 C-73.78342773 33.19867676 -74.56685547 33.39735352 -75.37402344 33.60205078 C-109.49000179 42.41149587 -137.13700285 63.16979265 -155.35986328 93.37939453 C-173.09527935 123.87680312 -173.99443324 159.25185963 -167 193 C-166.85046875 193.75216797 -166.7009375 194.50433594 -166.546875 195.27929688 C-159.14557372 231.77182403 -136.63170229 264.26705572 -111.69140625 291.0859375 C-109.22971743 293.75127837 -106.83070225 296.46085335 -104.4375 299.1875 C-100.75922594 303.28242812 -96.85590345 306.96735623 -92.71875 310.59375 C-90.76961159 312.31884952 -88.85993598 314.05762991 -86.96875 315.84375 C-79.91314199 322.50166055 -72.61423586 328.62765215 -64.91162109 334.52099609 C-62.90809098 336.07110917 -60.93129516 337.65109116 -58.95703125 339.23828125 C-47.64420578 348.27973585 -35.78925965 356.32479185 -23.67041016 364.24316406 C-21.42406897 365.72100929 -19.19612402 367.21896053 -16.98046875 368.7421875 C1.44183213 381.39260739 21.24028788 391.93665824 40.96337891 402.38769531 C43.7560603 403.87047935 46.54104578 405.36665773 49.32421875 406.8671875 C69.86342721 417.87626651 91.11094477 427.30945637 112.5625 436.375 C113.34253387 436.70575531 114.12256775 437.03651062 114.92623901 437.37728882 C125.79693094 441.97651043 136.76702479 446.20426946 147.86592102 450.21968079 C151.27767358 451.46717729 154.66905659 452.76607337 158.0625 454.0625 C165.78475801 456.97184032 173.59308233 459.5804023 181.43359375 462.15087891 C184.24186537 463.08002357 187.04303625 464.02879206 189.84375 464.98046875 C199.65451934 468.30477255 209.44749008 471.52055663 219.45581055 474.19848633 C225.94339448 475.94317745 232.33390329 477.95591798 238.72192383 480.03369141 C242.46274598 481.24181214 246.11230217 482.34817042 250 483 C249.57633942 487.34756449 246.74174058 489.38170766 243.625 492.0625 C242.53310963 493.02894265 241.44331752 493.99776029 240.35546875 494.96875 C239.79907715 495.46503906 239.24268555 495.96132813 238.66943359 496.47265625 C235.06680941 499.7686517 231.68867363 503.29367765 228.27734375 506.78515625 C226 509 226 509 223 511 C219.90117507 510.48352918 217.02615793 509.81441682 214 509 C212.80890625 508.69449219 211.6178125 508.38898438 210.390625 508.07421875 C204.45456937 506.53573877 198.58554297 504.90321234 192.77734375 502.93530273 C189.97992743 501.99324033 187.17576738 501.07302843 184.36988831 500.15652466 C155.09810953 490.58909667 126.438355 479.83925859 98 468 C97.02498535 467.59507324 96.0499707 467.19014648 95.04541016 466.77294922 C85.67348849 462.86650398 76.40222379 458.85105984 67.36303711 454.22094727 C62.31939022 451.6380134 57.21846012 449.19518891 52.09521484 446.77416992 C40.91301122 441.48148628 29.99288011 435.85954364 19.1796875 429.8515625 C15.17019991 427.62637853 11.12021452 425.5036779 7.03540039 423.42089844 C-28.85524332 405.03274255 -63.26429503 381.11041485 -94.28076172 355.41503906 C-95.81171112 354.15497335 -97.35980647 352.91580531 -98.91015625 351.6796875 C-118.44025592 336.09012341 -137.94435905 317.97318406 -152.68701172 297.77050781 C-154.15278472 295.79397642 -155.66730355 293.86157234 -157.19140625 291.9296875 C-192.15240559 247.46161589 -210.42434228 194.76174169 -205.4152832 138.04248047 C-204.71599168 132.91927592 -203.40132847 127.97075004 -202 123 C-215.07760175 151.95854419 -227.12545733 182.27327553 -227.16796875 214.58984375 C-227.17129715 215.49263565 -227.17462555 216.39542755 -227.17805481 217.32557678 C-227.18309397 219.23079931 -227.18546407 221.13603058 -227.18530273 223.04125977 C-227.18747011 225.89810524 -227.20560533 228.75455174 -227.22460938 231.61132812 C-227.35266719 273.30613981 -214.99987552 313.09228361 -196 350 C-195.63003906 350.72848145 -195.26007813 351.45696289 -194.87890625 352.20751953 C-189.58337797 362.53238628 -183.36033939 372.22584872 -176.9375 381.875 C-176.56222168 382.43954895 -176.18694336 383.0040979 -175.80029297 383.58575439 C-168.53381104 394.48190283 -160.78734357 404.98408101 -152.5 415.125 C-151.94812012 415.80240234 -151.39624023 416.47980469 -150.82763672 417.17773438 C-146.99631398 421.85241603 -143.05061507 426.40027869 -138.96484375 430.85546875 C-137.17061569 432.81378128 -135.42304764 434.80226137 -133.6875 436.8125 C-122.53684639 449.5743719 -110.9274765 462.3377433 -97.9765625 473.3046875 C-95.49139806 475.4362317 -93.09559854 477.65683599 -90.6875 479.875 C-86.20337072 483.96437787 -81.59732762 487.84619021 -76.875 491.65625 C-74.30655787 493.75008869 -71.77986704 495.88156979 -69.26293945 498.03637695 C-62.97338578 503.41657498 -56.53548024 508.56395336 -49.92578125 513.546875 C-47.75881022 515.1819931 -45.59846438 516.8257027 -43.4375 518.46875 C-28.63770352 529.68267332 -13.59999398 540.58563918 2.078125 550.546875 C2.71234375 551.02640625 3.3465625 551.5059375 4 552 C4 552.66 4 553.32 4 554 C-14.91966399 562.65477066 -14.91966399 562.65477066 -24.5 566.625 C-25.6653125 567.11226562 -26.830625 567.59953125 -28.03125 568.1015625 C-31.09679852 569.02929429 -32.13359821 569.27200243 -35 568 C-45.02640658 562.21104312 -54.21428441 554.75278463 -63.49023438 547.85546875 C-65.9673524 546.02413636 -68.45750413 544.21226542 -70.953125 542.40625 C-80.15076291 535.73435497 -88.94677982 528.82030122 -97.47705078 521.31689453 C-99.74580182 519.355105 -102.09265132 517.49468111 -104.4375 515.625 C-110.98075142 510.31161082 -117.04584007 504.50359603 -123.16845703 498.71826172 C-124.8375093 497.15244062 -126.52035131 495.60459773 -128.21484375 494.06640625 C-134.76337892 488.12021276 -141.10955753 481.99438967 -147.375 475.75 C-148.49902222 474.63286621 -148.49902222 474.63286621 -149.64575195 473.49316406 C-153.74797467 469.37950945 -157.68040972 465.17442653 -161.47216797 460.77294922 C-163.39756009 458.5386575 -165.3850173 456.36428185 -167.375 454.1875 C-191.9686325 426.86124167 -214.50842743 395.47008062 -230.02685547 362.09082031 C-230.7209994 360.59943831 -231.4241471 359.11223327 -232.13330078 357.62792969 C-237.39823823 346.60691467 -242.11442004 335.44822128 -246.375 324 C-246.77960449 322.91549561 -247.18420898 321.83099121 -247.60107422 320.71362305 C-252.17972761 308.1628495 -255.51701116 295.47013974 -258.125 282.375 C-258.37636719 281.17488281 -258.62773438 279.97476562 -258.88671875 278.73828125 C-262.19892192 262.24663089 -263.3432796 245.7624286 -263.26074219 228.96289062 C-263.249972 226.36825378 -263.26075227 223.77430442 -263.2734375 221.1796875 C-263.28748132 205.92045082 -261.97757857 190.9964237 -258.75 176.0625 C-258.42358521 174.54076172 -258.42358521 174.54076172 -258.09057617 172.98828125 C-251.25084643 142.08696944 -238.32911962 112.14724927 -219 87 C-218.31164062 86.10023438 -217.62328125 85.20046875 -216.9140625 84.2734375 C-212.83309209 79.06334484 -208.4879122 74.12958911 -204.0234375 69.24609375 C-202.42588072 67.47274404 -200.91616508 65.68316018 -199.4375 63.8125 C-196.88214995 60.86401917 -194.17284807 58.41720262 -191.203125 55.8984375 C-189.72533002 54.62501842 -188.27703089 53.31660949 -186.859375 51.9765625 C-165.4443464 31.79981786 -136.14743432 15.25217957 -108 7 C-107.21077148 6.76619629 -106.42154297 6.53239258 -105.60839844 6.29150391 C-71.10794145 -3.76847811 -35.45886987 -6.42751325 0 0 Z " fill="#A1A893" transform="translate(875,520)"/>



<path d="M0 0 C3 5.22222222 3 5.22222222 3 8 C4.216875 7.505 5.43375 7.01 6.6875 6.5 C9.92486738 5.27520559 12.50099357 4.67196815 16 5 C17.32 7.64 18.64 10.28 20 13 C20.680625 12.855625 21.36125 12.71125 22.0625 12.5625 C25.36273082 11.93054091 28.67144426 11.45686059 32 11 C36 17.75 36 17.75 36 20 C36.60328125 19.77183594 37.2065625 19.54367187 37.828125 19.30859375 C38.62734375 19.02113281 39.4265625 18.73367188 40.25 18.4375 C41.03890625 18.14746094 41.8278125 17.85742188 42.640625 17.55859375 C45.27893871 16.93395987 46.53684267 16.87279241 49 18 C50.265625 19.84765625 50.265625 19.84765625 51.25 22.0625 C51.58515625 22.79597656 51.9203125 23.52945312 52.265625 24.28515625 C52.50796875 24.85105469 52.7503125 25.41695312 53 26 C53.66 25.855625 54.32 25.71125 55 25.5625 C58.65599551 24.87700084 62.30622195 24.43824485 66 24 C67.32 26.97 68.64 29.94 70 33 C71.423125 32.505 72.84625 32.01 74.3125 31.5 C77.13135886 30.51952735 78.98509443 30 82 30 C82.67736481 32.03814233 83.34143534 34.08070555 84 36.125 C84.37125 37.26195312 84.7425 38.39890625 85.125 39.5703125 C85.96911949 42.87895941 86.16509276 45.60528016 86 49 C84.73308493 49.67408308 83.46129251 50.33900497 82.1875 51 C81.47980469 51.37125 80.77210938 51.7425 80.04296875 52.125 C78 53 78 53 75 53 C75.99 56.63 76.98 60.26 78 64 C73.05 66.475 73.05 66.475 68 69 C68.495 74.94 68.495 74.94 69 81 C65.7 81.99 62.4 82.98 59 84 C59.33 85.051875 59.66 86.10375 60 87.1875 C60.83966782 90.38873357 61.19750904 92.7411008 61 96 C59.5437455 96.67119549 58.08492133 97.33681807 56.625 98 C55.40683594 98.556875 55.40683594 98.556875 54.1640625 99.125 C52 100 52 100 50 100 C50.22816406 100.53109375 50.45632813 101.0621875 50.69140625 101.609375 C50.97886719 102.31578125 51.26632812 103.0221875 51.5625 103.75 C51.99755859 104.79414062 51.99755859 104.79414062 52.44140625 105.859375 C53.10087532 108.38657116 53.07874555 109.62071075 52 112 C50.22265625 113.046875 50.22265625 113.046875 48.0625 113.75 C46.99708984 114.11351562 46.99708984 114.11351562 45.91015625 114.484375 C44 115 44 115 42 115 C42.2165625 115.53109375 42.433125 116.0621875 42.65625 116.609375 C42.9346875 117.31578125 43.213125 118.0221875 43.5 118.75 C43.7784375 119.44609375 44.056875 120.1421875 44.34375 120.859375 C45 123 45 123 45 127 C43.5882217 127.53394179 42.17029756 128.05165104 40.75 128.5625 C39.96109375 128.85253906 39.1721875 129.14257812 38.359375 129.44140625 C35.7419912 130.06108487 34.45047671 130.09848956 32 129 C30.25 125.4375 30.25 125.4375 29 122 C25.62294375 122.53725895 22.303314 123.11064623 19 124 C16.52746322 120.96552304 15.52573205 118.81433013 14 115 C10.37 115.99 6.74 116.98 3 118 C-2 110.25 -2 110.25 -2 108 C-5.96 108.99 -9.92 109.98 -14 111 C-15.811935 107.98010834 -17.48674917 105.14290557 -19 102 C-22.73487777 102.4979837 -24.81237635 102.87491756 -28 105 C-28.99 105 -29.98 105 -31 105 C-32.60546875 102.8125 -32.60546875 102.8125 -34.1875 100 C-34.71730469 99.071875 -35.24710938 98.14375 -35.79296875 97.1875 C-36.19128906 96.465625 -36.58960938 95.74375 -37 95 C-40.63 95.99 -44.26 96.98 -48 98 C-50.38523468 94.81968709 -51.74985467 92.63733456 -53.1875 89.0625 C-53.53167969 88.22847656 -53.87585937 87.39445312 -54.23046875 86.53515625 C-55.0345012 83.88633868 -55.1427234 81.75111666 -55 79 C-51.38026598 77.68373308 -48.90432869 77 -45 77 C-45.2165625 76.38511719 -45.433125 75.77023437 -45.65625 75.13671875 C-45.9346875 74.32847656 -46.213125 73.52023437 -46.5 72.6875 C-46.7784375 71.88699219 -47.056875 71.08648438 -47.34375 70.26171875 C-48 68 -48 68 -48 65 C-44.7 63.35 -41.4 61.7 -38 60 C-37.91087781 56.16774573 -38.12132271 52.73437848 -39 49 C-36.03 47.68 -33.06 46.36 -30 45 C-29.957279 43.33388095 -29.95936168 41.66617115 -30 40 C-30.495 39.505 -30.495 39.505 -31 39 C-31 37.35 -31 35.7 -31 34 C-27.7 33.01 -24.4 32.02 -21 31 C-21.99 27.04 -22.98 23.08 -24 19 C-17.375 16 -17.375 16 -14 16 C-14.66 12.04 -15.32 8.08 -16 4 C-4.17391304 -1.39130435 -4.17391304 -1.39130435 0 0 Z " fill="#B3A38D" transform="translate(1459,1099)"/>
<path d="M0 0 C2.60993958 0.25884925 5.22065719 0.50995316 7.83203125 0.75390625 C10.49235695 1.02189975 13.15249574 1.29137364 15.8125 1.5625 C17.19855343 1.70261528 18.58462108 1.84258994 19.97070312 1.98242188 C23.31394373 2.32024061 26.65703603 2.65945657 30 3 C28.82255314 6.29413482 27.74114116 8.63092938 25.20703125 11.05078125 C24.66320801 11.57978027 24.11938477 12.1087793 23.55908203 12.65380859 C22.98270996 13.20117676 22.40633789 13.74854492 21.8125 14.3125 C20.61662829 15.47595448 19.42259923 16.64130613 18.23046875 17.80859375 C17.66247559 18.36401855 17.09448242 18.91944336 16.50927734 19.49169922 C14.78638528 21.2134765 13.18854161 23.00777839 11.625 24.875 C7.57638935 29.65602263 3.0619646 33.98787141 -1.40771484 38.37060547 C-4.52366529 41.44432776 -7.52348012 44.55319461 -10.375 47.875 C-15.2576343 53.53753764 -20.64735456 58.69242005 -25.97265625 63.93359375 C-30.3160773 68.2351841 -34.48121354 72.60188117 -38.46289062 77.24023438 C-40.53241947 79.6095425 -42.74676477 81.80606044 -45 84 C-48.54918157 87.5117655 -51.91968457 91.09008901 -55.1640625 94.8828125 C-57.3520617 97.40599455 -59.61293113 99.85554519 -61.875 102.3125 C-65.94934487 106.77955281 -69.8107941 111.36959162 -73.6015625 116.078125 C-75.29777935 118.14452598 -77.00765786 120.16734548 -78.7734375 122.171875 C-86.21749375 130.6327166 -92.88936217 139.48515022 -99.37548828 148.69775391 C-100.9985211 150.99790411 -102.63598837 153.28711638 -104.27734375 155.57421875 C-109.4995054 162.87377478 -114.60729504 170.15863632 -119 178 C-123.65061984 176.5135402 -126.89995746 173.78965622 -130.5625 170.6875 C-158.75994183 147.52368021 -193.06408929 130.3376671 -225 113 C-225 112.01 -225 111.02 -225 110 C-224.01902344 109.46632813 -223.03804687 108.93265625 -222.02734375 108.3828125 C-220.66316282 107.63184035 -219.29995603 106.87909705 -217.9375 106.125 C-216.86278442 105.53066162 -216.86278442 105.53066162 -215.76635742 104.92431641 C-209.91369685 101.63327742 -204.36863387 97.99481513 -198.96264648 94.01220703 C-196.40778033 92.20948267 -194.66302979 90.99486023 -191.48046875 91.01953125 C-185.3794667 93.43110844 -179.72090852 96.81088243 -174 100 C-173.17242188 100.45906738 -172.34484375 100.91813477 -171.4921875 101.39111328 C-162.35026466 106.47886623 -153.27637813 111.63931738 -144.5625 117.4375 C-143.97855469 117.82599121 -143.39460938 118.21448242 -142.79296875 118.61474609 C-139.96423178 120.53792202 -137.36706112 122.55427956 -134.83984375 124.84765625 C-132.32272224 127.25476968 -132.32272224 127.25476968 -129.98242188 126.82641602 C-126.466914 125.36089949 -124.68804048 121.90557767 -122.5625 118.875 C-116.96166013 111.14785119 -110.92238359 103.96730943 -104.60253906 96.82470703 C-102.50163739 94.43254691 -100.43983344 92.00841896 -98.37866211 89.58203125 C-92.41535888 82.56433003 -86.25879611 75.75409652 -80 69 C-78.68143722 67.56541121 -77.36487614 66.12901365 -76.04907227 64.69189453 C-74.66384842 63.17895501 -73.27675145 61.66773099 -71.8894043 60.15673828 C-70.09751082 58.20281718 -68.31570347 56.24127027 -66.54003906 54.27246094 C-59.35778673 46.34003138 -51.85935198 38.77113978 -44.25 31.25 C-33.03496855 20.18465055 -33.03496855 20.18465055 -22.65234375 8.34423828 C-21.4254155 6.84833678 -20.15113335 5.39165195 -18.875 3.9375 C-17.66457031 2.49697266 -17.66457031 2.49697266 -16.4296875 1.02734375 C-10.99307429 -2.18632625 -6.08155661 -0.81643809 0 0 Z " fill="#ADA590" transform="translate(1225,1070)"/>
<path d="M0 0 C0.64886169 0.24036987 1.29772339 0.48073975 1.96624756 0.72839355 C4.01646133 1.48947975 6.06293141 2.26009134 8.109375 3.03125 C9.49715226 3.54883064 10.88517126 4.06576361 12.2734375 4.58203125 C14.80919193 5.52523667 17.34309382 6.47288858 19.87597656 7.42382812 C21.85836998 8.15968218 23.85332705 8.86256735 25.859375 9.53125 C24.48925417 12.74993286 23.0960635 14.39681975 20.25390625 16.4140625 C19.16166748 17.19704712 19.16166748 17.19704712 18.04736328 17.99584961 C17.26345215 18.54378174 16.47954102 19.09171387 15.671875 19.65625 C14.45346924 20.52165405 14.45346924 20.52165405 13.21044922 21.40454102 C7.76632695 25.25142961 2.2560734 28.99146247 -3.31542969 32.65087891 C-8.65062941 36.16502337 -13.86238472 39.8428743 -19.078125 43.53125 C-27.58168868 49.52344022 -36.24446486 55.14363002 -45.140625 60.53125 C-46.37123321 61.28492859 -47.60170293 62.03883334 -48.83203125 62.79296875 C-64.99783712 72.65001038 -81.69751646 81.518248 -98.52539062 90.18408203 C-100.1244772 91.00780867 -101.72242374 91.83375925 -103.31835938 92.66357422 C-122.99664677 102.88943053 -143.37881375 111.29428682 -164.32397461 118.54418945 C-167.17911902 119.54473976 -170.01734771 120.58505265 -172.85546875 121.6328125 C-177.30572638 123.255451 -181.7617845 124.71131229 -186.328125 125.96875 C-187.07223633 126.17411377 -187.81634766 126.37947754 -188.58300781 126.59106445 C-203.40997918 130.56958477 -218.83226624 134.12273273 -234.140625 135.53125 C-235.39101563 135.64984375 -236.64140625 135.7684375 -237.9296875 135.890625 C-248.73879023 136.45382474 -254.30678031 133.46054386 -262.3828125 126.63671875 C-267.31079943 122.07135728 -271.47116821 116.72964778 -274.140625 110.53125 C-274.1811548 108.86507621 -274.18631261 107.19729034 -274.140625 105.53125 C-273.48505615 105.47179199 -272.8294873 105.41233398 -272.15405273 105.35107422 C-253.1781994 103.57316233 -234.76822471 100.46823609 -216.140625 96.53125 C-214.79822754 96.25063721 -214.79822754 96.25063721 -213.42871094 95.96435547 C-202.94561394 93.7440225 -192.7941326 90.69721329 -182.625 87.34326172 C-180.11522575 86.52294832 -177.59793531 85.73029625 -175.078125 84.94140625 C-161.68396063 80.69231054 -148.90081257 75.40223258 -136.140625 69.53125 C-135.15078613 69.07621094 -134.16094727 68.62117188 -133.14111328 68.15234375 C-96.23190382 51.05780262 -59.89287351 31.15897826 -27.59375 6.30859375 C-26.73249512 5.64996338 -25.87124023 4.99133301 -24.98388672 4.31274414 C-23.38736023 3.07958139 -21.80447203 1.8284668 -20.23876953 0.55639648 C-19.53349121 0.00927002 -18.82821289 -0.53785645 -18.1015625 -1.1015625 C-17.50134277 -1.58512207 -16.90112305 -2.06868164 -16.28271484 -2.56689453 C-11.01944468 -4.78281885 -5.03308456 -1.88251137 0 0 Z " fill="#B0A38D" transform="translate(1015.140625,1016.46875)"/>


<path d="M0 0 C-0.60425267 13.38419665 -4.42442987 25.72214309 -14.0625 35.3125 C-22.39732847 41.76217567 -34.60673667 42.90625572 -44.75390625 44.2265625 C-46.0434169 44.39515778 -47.33292755 44.56375305 -48.66151428 44.73745728 C-63.03851328 46.50857666 -77.38441959 46.53234427 -91.8480835 46.39123535 C-94.63073047 46.36961341 -97.41318263 46.37039636 -100.19589901 46.37123013 C-126.61939985 46.36950049 -152.9135829 45.21505503 -179.0625 41.1875 C-180.84298311 40.92272244 -182.62358484 40.6587414 -184.40429688 40.39550781 C-202.98496071 37.62728962 -221.60154798 34.81051461 -240 31 C-240 26.50010856 -239.7371208 26.23249266 -236.78125 23.20703125 C-235.75994995 22.14331299 -235.75994995 22.14331299 -234.71801758 21.05810547 C-233.62009888 19.94653076 -233.62009888 19.94653076 -232.5 18.8125 C-227.94924542 14.1622023 -223.65029048 9.6446776 -219.8125 4.375 C-217.62968446 1.93929534 -216.64214816 1.04728588 -213.33105469 0.8034668 C-212.30915039 0.91343994 -211.28724609 1.02341309 -210.234375 1.13671875 C-208.50151245 1.31992676 -208.50151245 1.31992676 -206.73364258 1.50683594 C-200.27968765 2.35931674 -193.85689983 3.35804852 -187.4375 4.4375 C-186.10490088 4.65740567 -184.77221863 4.87680817 -183.43945312 5.09570312 C-173.69368851 6.70310264 -173.69368851 6.70310264 -168.86914062 7.54882812 C-127.58331266 14.7182234 -82.21588417 15.67654957 -41 8 C-39.42810457 7.71297137 -37.85616173 7.42620232 -36.28417969 7.13964844 C-28.20218076 5.65669793 -20.13225323 4.11603286 -12.078125 2.48828125 C-11.06804886 2.28535965 -11.06804886 2.28535965 -10.03756714 2.07833862 C-6.70723512 1.39660844 -3.3701631 0 0 0 Z " fill="#A1A994" transform="translate(1409,1018)"/>


<path d="M0 0 C2.23291016 0.70263672 2.23291016 0.70263672 5 2 C6.15669189 2.46873535 7.31338379 2.9374707 8.50512695 3.42041016 C9.83290099 3.95982326 11.16061629 4.49938097 12.48828125 5.0390625 C13.19147995 5.32478119 13.89467865 5.61049988 14.6191864 5.90487671 C16.85034242 6.81145783 19.08142232 7.71822611 21.3125 8.625 C22.83137517 9.24219989 24.35025533 9.85938752 25.86914062 10.4765625 C29.57948476 11.98423311 33.28976066 13.49207152 37 15 C35.90406978 18.28779067 35.40044969 18.71620549 32.703125 20.64453125 C31.6527002 21.4015332 31.6527002 21.4015332 30.58105469 22.17382812 C29.81180664 22.71458984 29.04255859 23.25535156 28.25 23.8125 C27.44723633 24.38291016 26.64447266 24.95332031 25.81738281 25.54101562 C9.34916855 37.17085966 -7.4776802 48.02480471 -25 58 C-25.9089502 58.51836426 -26.81790039 59.03672852 -27.75439453 59.57080078 C-53.79289995 74.32641627 -81.09789399 86.11760745 -110 94 C-110.96421875 94.28359375 -111.9284375 94.5671875 -112.921875 94.859375 C-140.07847177 102.73318116 -140.07847177 102.73318116 -149.13671875 99.15625 C-156.8099362 94.83001692 -163.14884022 87.35222099 -166 79 C-166.5625 75.3125 -166.5625 75.3125 -166 72 C-162.45852514 67.62912274 -159.88691093 66.31144914 -154.36328125 65.55859375 C-153.07292969 65.36998779 -151.78257812 65.18138184 -150.453125 64.98706055 C-149.77701172 64.89758148 -149.10089844 64.80810242 -148.40429688 64.71591187 C-145.57674289 64.33957294 -142.75750379 63.91306727 -139.93685913 63.48847961 C-138.53842884 63.27813012 -137.13968516 63.06985319 -135.7406311 62.86369324 C-91.39797126 56.31832975 -47.36813201 33.65982976 -11.2734375 7.61328125 C-10.53730225 7.08710205 -9.80116699 6.56092285 -9.04272461 6.01879883 C-7.68371086 5.03834834 -6.33698669 4.04052496 -5.00610352 3.0222168 C-3.21484375 1.71875 -3.21484375 1.71875 0 0 Z " fill="#B3A38C" transform="translate(1026,1108)"/>






<path d="M0 0 C1.98311378 0.78009397 3.94542452 1.61404059 5.890625 2.484375 C7.05730713 3.0007251 8.22398926 3.5170752 9.42602539 4.04907227 C10.04688019 4.32566681 10.66773499 4.60226135 11.30740356 4.88723755 C50.29369888 22.20216261 91.17674626 38.11044202 133 47 C132.53454575 51.26791521 129.84706181 53.52142319 126.90625 56.3515625 C126.39952759 56.8516684 125.89280518 57.35177429 125.37072754 57.86703491 C123.75410486 59.46029005 122.1276557 61.04302444 120.5 62.625 C118.87412436 64.21581244 117.25040757 65.80874542 115.62927246 67.40438843 C114.62078267 68.39590169 113.60923085 69.38431195 112.59436035 70.36929321 C109.95698662 72.92431474 109.95698662 72.92431474 108 76 C102.3273732 75.40921765 97.06143366 74.36483302 91.5859375 72.7890625 C90.80785736 72.5686026 90.02977722 72.3481427 89.2281189 72.1210022 C80.95797871 69.74897397 72.78084895 67.11118741 64.625 64.375 C63.85374786 64.11710693 63.08249573 63.85921387 62.28787231 63.59350586 C-5.91904541 40.72063639 -5.91904541 40.72063639 -34 22 C-32.81017774 18.43053323 -31.85454521 17.93078412 -28.80859375 15.85546875 C-27.94556641 15.26056641 -27.08253906 14.66566406 -26.19335938 14.05273438 C-24.82920898 13.12944336 -24.82920898 13.12944336 -23.4375 12.1875 C-21.66446861 10.97396427 -19.89232254 9.75913397 -18.12109375 8.54296875 C-17.25597168 7.95563965 -16.39084961 7.36831055 -15.49951172 6.76318359 C-12.49625405 4.64465196 -9.66672536 2.34703156 -6.87133789 -0.0378418 C-4.19768201 -1.41251601 -2.84129259 -0.8728085 0 0 Z " fill="#B3A38C" transform="translate(1027,1057)"/>


<path d="M0 0 C27.38116827 -0.63480297 48.31003905 -0.1693756 69.95703125 17.7265625 C76.29911127 22.93151706 83.03576949 27.6054297 89.71484375 32.36328125 C91.95556757 33.96817575 94.18290676 35.58988356 96.40625 37.21875 C105.31339618 43.73378723 114.35402285 49.99591672 123.56958008 56.06811523 C129.45263592 59.9450208 135.24745936 63.93191342 141 68 C137.93893205 71.29355413 134.69202404 73.6698668 130.921875 76.109375 C130.35043762 76.48104797 129.77900024 76.85272095 129.19024658 77.23565674 C127.37977901 78.41172666 125.56500157 79.58094246 123.75 80.75 C122.51533306 81.55033106 121.28095494 82.35110786 120.046875 83.15234375 C117.03457354 85.10672965 114.0183707 87.05499694 111 89 C104.44825182 85.4994127 98.22582197 81.64251314 92.0625 77.5 C91.15008545 76.88833984 90.2376709 76.27667969 89.29760742 75.64648438 C69.64049549 62.39503549 50.91927928 47.96986147 32.59765625 32.9375 C30.45666374 31.18124771 28.30344821 29.45561217 26.12109375 27.75 C20.20754656 23.09671697 14.79218974 18.02681847 9.4375 12.75 C8.73367188 12.06381592 8.02984375 11.37763184 7.3046875 10.6706543 C6.64597656 10.01105713 5.98726562 9.35145996 5.30859375 8.671875 C4.71876709 8.0850293 4.12894043 7.49818359 3.52124023 6.89355469 C1.77634429 4.72160589 0.91467352 2.61817904 0 0 Z " fill="#B2A38C" transform="translate(823,956)"/>
<path d="M0 0 C1.72460938 1.66235352 1.72460938 1.66235352 2.25585938 4.59594727 C2.17106771 14.10321293 1.33859588 23.00221302 -4.65039062 30.72485352 C-9.37067716 34.20887453 -13.72039811 35.99523001 -19.52148438 36.79516602 C-20.68873047 36.96145508 -21.85597656 37.12774414 -23.05859375 37.29907227 C-24.26451172 37.46020508 -25.47042969 37.62133789 -26.71289062 37.78735352 C-27.91494141 37.9562207 -29.11699219 38.12508789 -30.35546875 38.29907227 C-32.60213015 38.61382792 -34.84938623 38.92439029 -37.09741211 39.22924805 C-39.25773512 39.52366404 -41.41383263 39.85051667 -43.56494141 40.20605469 C-48.07134796 40.76023773 -52.48585526 40.82456126 -57.02148438 40.83032227 C-57.95025894 40.83365067 -58.87903351 40.83697906 -59.83595276 40.84040833 C-61.7984264 40.84545388 -63.76090855 40.84781739 -65.72338867 40.84765625 C-68.67251434 40.84982384 -71.6212538 40.86795263 -74.5703125 40.88696289 C-85.64341933 40.91880328 -96.32914692 40.40494575 -107.27539062 38.66235352 C-105.71413241 34.8936678 -103.3727443 32.54372833 -100.47851562 29.70532227 C-100.00726257 29.23927078 -99.53600952 28.7732193 -99.05047607 28.29304504 C-97.54681223 26.80712231 -96.03664363 25.3280539 -94.52539062 23.84985352 C-93.03329993 22.38554625 -91.54276977 20.91976869 -90.05604553 19.45001221 C-88.623554 18.03758004 -87.18085474 16.63552485 -85.73803711 15.23364258 C-83.65689709 13.06069059 -82.18374452 11.04317337 -80.57617188 8.53344727 C-78.46651478 6.01217732 -77.30880452 5.66891187 -74.01025391 5.02148438 C-70.49984882 4.75143656 -67.03727841 4.60345902 -63.51928711 4.56488037 C-59.59006791 4.51798512 -55.66601743 4.35878534 -51.74023438 4.19360352 C-50.54846085 4.14530899 -50.54846085 4.14530899 -49.33261108 4.09603882 C-40.32274149 3.66929482 -31.61895601 2.10673822 -22.77905273 0.33764648 C-5.2776368 -3.10259356 -5.2776368 -3.10259356 0 0 Z " fill="#B3A48D" transform="translate(1313.275390625,1106.337646484375)"/>

<path d="M0 0 C3.06422167 4.59633251 2.70152438 8.61306509 2 14 C-1.39103192 26.13851018 -8.25036983 36.50165999 -15 47 C-16.28303266 49.01141228 -17.56555907 51.02314755 -18.84765625 53.03515625 C-21.58791991 57.32883041 -24.33620263 61.617238 -27.08984375 65.90234375 C-30.41856908 71.08581713 -33.71852581 76.28652193 -37 81.5 C-42.90989753 90.88179841 -48.88738161 100.21984221 -54.87109375 109.5546875 C-57.55637541 113.74385311 -60.23613574 117.93645025 -62.91015625 122.1328125 C-69.89879819 133.09408384 -76.93159655 144.0260575 -84.0340271 154.91394043 C-84.88031056 156.21206123 -85.72540112 157.51096057 -86.56924438 158.81066895 C-87.74695457 160.623578 -88.92943306 162.43328252 -90.11328125 164.2421875 C-90.79173096 165.2822998 -91.47018066 166.32241211 -92.16918945 167.39404297 C-93.67566591 169.53834617 -95.13113178 171.19647683 -97 173 C-95.14402364 167.05375285 -92.96466787 161.43716849 -90.26171875 155.828125 C-89.9044873 155.07624908 -89.54725586 154.32437317 -89.17919922 153.54971313 C-88.02032393 151.11404355 -86.85402191 148.6820153 -85.6875 146.25 C-84.87370238 144.54332335 -84.06031189 142.83645251 -83.24731445 141.12939453 C-77.8710435 129.85346877 -72.43626297 118.60594962 -66.98583984 107.36572266 C-62.45091903 97.99162116 -58.051974 88.55812719 -53.68676758 79.10400391 C-49.87480451 70.85533776 -45.98114833 62.64983705 -42.03149414 54.46630859 C-39.66527647 49.54537135 -37.35594372 44.6053669 -35.1171875 39.625 C-34.63717285 38.55991211 -34.1571582 37.49482422 -33.66259766 36.39746094 C-32.75627512 34.37805026 -31.85688337 32.35550641 -30.96630859 30.32910156 C-25.44134568 18.02340527 -15.98877817 -1.81005036 0 0 Z " fill="#50544C" transform="translate(1618,1064)"/>

<path d="M0 0 C2.80340975 1.47522691 5.59442764 2.95265113 8.35522461 4.50683594 C9.44448242 5.11849609 10.53374023 5.73015625 11.65600586 6.36035156 C12.78393555 6.99779297 13.91186523 7.63523437 15.07397461 8.29199219 C16.2019043 8.92556641 17.32983398 9.55914063 18.49194336 10.21191406 C23.22029791 12.87266269 27.932287 15.54457559 32.57397461 18.35449219 C28.55441982 21.88825283 24.46368341 24.00128621 19.63647461 26.16699219 C15.21773642 28.18147329 10.81647241 30.19139201 6.52319336 32.46386719 C5.89727295 32.79281982 5.27135254 33.12177246 4.62646484 33.46069336 C2.92167956 34.3651555 1.22414692 35.2832496 -0.47290039 36.20214844 C-3.88117629 37.53209737 -4.97007544 37.31483456 -8.42602539 36.35449219 C-10.14092055 35.56789267 -11.82564211 34.71334613 -13.48071289 33.80761719 C-14.4255957 33.29199219 -15.37047852 32.77636719 -16.34399414 32.24511719 C-17.80772461 31.43300781 -17.80772461 31.43300781 -19.30102539 30.60449219 C-20.26911133 30.07855469 -21.23719727 29.55261719 -22.23461914 29.01074219 C-27.56247663 26.08223276 -32.56664613 23.00917854 -37.42602539 19.35449219 C-35.10481842 16.76003577 -32.79616557 15.37549439 -29.67211914 13.86621094 C-28.73432617 13.40666016 -27.7965332 12.94710938 -26.83032227 12.47363281 C-25.8512793 12.00119141 -24.87223633 11.52875 -23.86352539 11.04199219 C-21.94354202 10.11254865 -20.02555756 9.17896432 -18.10961914 8.24121094 C-17.1645752 7.7789209 -16.21953125 7.31663086 -15.24584961 6.84033203 C-11.56136283 4.89887865 -8.1267384 2.63454046 -4.69970703 0.27172852 C-2.42602539 -0.64550781 -2.42602539 -0.64550781 0 0 Z " fill="#A3A694" transform="translate(940.426025390625,1108.6455078125)"/>



<path d="M0 0 C-1.01425204 2.81148129 -1.73074495 3.84640596 -4.36547852 5.34936523 C-5.35990967 5.74841064 -6.35434082 6.14745605 -7.37890625 6.55859375 C-9.07865601 7.25166626 -9.07865601 7.25166626 -10.81274414 7.95874023 C-12.06253326 8.45198841 -13.31245564 8.94489905 -14.5625 9.4375 C-15.8525675 9.95733564 -17.14219224 10.47827128 -18.43139648 11.00024414 C-22.61297853 12.68707845 -26.80590253 14.34458389 -31 16 C-32.47010316 16.58190223 -33.94015494 17.16393429 -35.41015625 17.74609375 C-41.16295307 20.02263949 -46.91673671 22.29651523 -52.67993164 24.54663086 C-58.46927203 26.80818474 -64.24760854 29.0841054 -69.9765625 31.49609375 C-77.19476074 34.52891445 -84.50362571 37.31999613 -91.8125 40.125 C-93.87141321 40.91560328 -95.9301164 41.70673347 -97.98820496 42.4994812 C-99.84164744 43.21337021 -101.69582417 43.92535208 -103.55004883 44.63720703 C-105.97496769 45.59509374 -108.32085455 46.59588929 -110.69018555 47.67138672 C-114 49 -114 49 -118 49 C-117 46 -117 46 -114.47045898 44.6315918 C-113.32391846 44.15890869 -112.17737793 43.68622559 -110.99609375 43.19921875 C-110.35093307 42.9304039 -109.7057724 42.66158905 -109.0410614 42.3846283 C-106.84447603 41.47396346 -104.64129822 40.58055579 -102.4375 39.6875 C-100.86358604 39.04064811 -99.28986109 38.39333617 -97.71630859 37.74560547 C-80.23341627 30.58216478 -62.62679621 23.71932345 -45.02514648 16.85424805 C-42.72767612 15.95758539 -40.43023104 15.06085793 -38.1328125 14.1640625 C-37.02541214 13.73235245 -35.91801178 13.3006424 -34.77705383 12.85585022 C-26.37325199 9.56809124 -18.01837036 6.16917437 -9.7048645 2.65908813 C-8.44112503 2.13247086 -8.44112503 2.13247086 -7.15185547 1.59521484 C-6.41852997 1.28578949 -5.68520447 0.97636414 -4.92965698 0.65756226 C-3 0 -3 0 0 0 Z " fill="#E9DCCF" transform="translate(1531,1138)"/>
<path d="M0 0 C-0.22821534 11.63898214 -7.46227373 21.02025848 -15.08203125 29.26953125 C-17 31 -17 31 -19 31 C-19 24.38193002 -17.11438448 19.56658531 -14.1875 13.75 C-13.84396484 13.06486328 -13.50042969 12.37972656 -13.14648438 11.67382812 C-7.07609375 0 -7.07609375 0 0 0 Z " fill="#E5E0D6" transform="translate(1612,1075)"/>
<path d="M0 0 C-0.17626953 1.84985352 -0.17626953 1.84985352 -1 4 C-3.23388672 5.29272461 -3.23388672 5.29272461 -6.1796875 6.40234375 C-7.25476562 6.81806641 -8.32984375 7.23378906 -9.4375 7.66210938 C-10.571875 8.08298828 -11.70625 8.50386719 -12.875 8.9375 C-15.08171914 9.77735134 -17.28745753 10.61978434 -19.4921875 11.46484375 C-20.57781982 11.87951904 -21.66345215 12.29419434 -22.78198242 12.72143555 C-26.79455609 14.31568851 -30.71034774 16.08090718 -34.62182617 17.90722656 C-39.42671959 20.11508027 -43.62971541 22 -49 22 C-49 21.01 -49 20.02 -49 19 C-37.16735135 13.74784573 -25.29589034 8.62110969 -13.25 3.875 C-12.26894287 3.48513916 -11.28788574 3.09527832 -10.27709961 2.69360352 C-8.91016968 2.16077759 -8.91016968 2.16077759 -7.515625 1.6171875 C-6.71415039 1.30378418 -5.91267578 0.99038086 -5.08691406 0.66748047 C-3 0 -3 0 0 0 Z " fill="#EBE1D4" transform="translate(1506,1172)"/>
<path d="M0 0 C0 0.99 0 1.98 0 3 C-5.1223291 5.08266741 -10.24523151 7.16391621 -15.36865234 9.24389648 C-17.10871655 9.95054531 -18.84862804 10.65757032 -20.58837891 11.36499023 C-23.10017737 12.38626302 -25.61253598 13.4061471 -28.125 14.42578125 C-28.89303955 14.73840408 -29.6610791 15.05102692 -30.45239258 15.37312317 C-32.63184051 16.25673724 -34.81454395 17.13135977 -37 18 C-37.73444336 18.29345306 -38.46888672 18.58690613 -39.22558594 18.88925171 C-42.28492061 20.0808385 -44.68694123 21 -48 21 C-48 20.01 -48 19.02 -48 18 C-38.69577585 13.93868293 -29.33131967 10.08451345 -19.86401367 6.42041016 C-17.77370636 5.60995898 -15.68668351 4.79139233 -13.59960938 3.97265625 C-12.26060728 3.45263391 -10.92142163 2.93308392 -9.58203125 2.4140625 C-8.38811768 1.9495166 -7.1942041 1.4849707 -5.96411133 1.00634766 C-3 0 -3 0 0 0 Z " fill="#EADDCE" transform="translate(1491,1131)"/>
<path d="M0 0 C-1.03260124 3.00016866 -1.82716987 3.90320427 -4.64208984 5.47973633 C-6.28491943 6.14912231 -6.28491943 6.14912231 -7.9609375 6.83203125 C-9.75144531 7.56389648 -9.75144531 7.56389648 -11.578125 8.31054688 C-12.51301758 8.67974243 -12.51301758 8.67974243 -13.46679688 9.05639648 C-15.36879223 9.81004024 -17.25851968 10.58968037 -19.1484375 11.37304688 C-29.30108898 15.45927029 -29.30108898 15.45927029 -33 14 C-29.54648254 11.0244917 -26.37904711 9.10214606 -22.1484375 7.421875 C-21.05015625 6.98359375 -19.951875 6.5453125 -18.8203125 6.09375 C-17.11488281 5.42859375 -17.11488281 5.42859375 -15.375 4.75 C-14.2303125 4.29109375 -13.085625 3.8321875 -11.90625 3.359375 C-3.4078311 0 -3.4078311 0 0 0 Z " fill="#F0E5D9" transform="translate(1531,1138)"/>
<path d="M0 0 C-1 3 -1 3 -3.52856445 4.3503418 C-4.629021 4.79547119 -5.72947754 5.24060059 -6.86328125 5.69921875 C-8.06017578 6.18583984 -9.25707031 6.67246094 -10.49023438 7.17382812 C-11.11760498 7.42205322 -11.74497559 7.67027832 -12.39135742 7.92602539 C-14.29991345 8.68251113 -16.1999239 9.45787354 -18.09960938 10.23632812 C-27.46105224 14 -27.46105224 14 -32 14 C-31 11 -31 11 -28.25610352 9.54199219 C-26.46064087 8.80190918 -26.46064087 8.80190918 -24.62890625 8.046875 C-23.99137924 7.78239563 -23.35385223 7.51791626 -22.69700623 7.24542236 C-21.34828262 6.68889433 -19.99729804 6.13781909 -18.64428711 5.59179688 C-16.56857224 4.75245539 -14.50190967 3.89332111 -12.43554688 3.03125 C-2.27633609 -1.13816805 -2.27633609 -1.13816805 0 0 Z " fill="#E8D9C8" transform="translate(1445,1173)"/>
<path d="M0 0 C0.99 1.32 1.98 2.64 3 4 C2.52949219 4.73605469 2.05898437 5.47210937 1.57421875 6.23046875 C0.95160156 7.20628906 0.32898437 8.18210937 -0.3125 9.1875 C-0.92738281 10.15042969 -1.54226563 11.11335938 -2.17578125 12.10546875 C-3.82123103 14.71634303 -5.42369665 17.3469602 -7 20 C-8 18 -8 18 -7.37915039 16.12060547 C-7.03875732 15.37697754 -6.69836426 14.63334961 -6.34765625 13.8671875 C-5.98349609 13.06152344 -5.61933594 12.25585938 -5.24414062 11.42578125 C-4.85419922 10.58402344 -4.46425781 9.74226563 -4.0625 8.875 C-3.48338867 7.60076172 -3.48338867 7.60076172 -2.89257812 6.30078125 C-1.93534092 4.19722296 -0.97091277 2.09727268 0 0 Z " fill="#5C5B54" transform="translate(1529,1217)"/>
<path d="M0 0 C0 0.99 0 1.98 0 3 C-7.28571429 6.42857143 -7.28571429 6.42857143 -12 6 C-7.91466721 1.69383841 -6.09114656 0 0 0 Z " fill="#F2EADC" transform="translate(1477,1160)"/>
<path d="M0 0 C0 0.66 0 1.32 0 2 C0.99 2.33 1.98 2.66 3 3 C1.75336669 3.50833591 0.50250613 4.00631145 -0.75 4.5 C-1.44609375 4.7784375 -2.1421875 5.056875 -2.859375 5.34375 C-5 6 -5 6 -9 6 C-9 5.01 -9 4.02 -9 3 C-3.375 0 -3.375 0 0 0 Z " fill="#E8DBCC" transform="translate(1466,1188)"/>
<path d="M0 0 C0.53625 0.226875 1.0725 0.45375 1.625 0.6875 C-1.45499946 4.35980705 -3.6232602 5.25552365 -8.375 5.6875 C-8.375 4.6975 -8.375 3.7075 -8.375 2.6875 C-2.95961538 -0.38942308 -2.95961538 -0.38942308 0 0 Z " fill="#F0E8D8" transform="translate(1451.375,1146.3125)"/>
<path d="M0 0 C0.33 0 0.66 0 1 0 C0.67 4.95 0.34 9.9 0 15 C-1.32 15.33 -2.64 15.66 -4 16 C-2.68 10.72 -1.36 5.44 0 0 Z " fill="#DACDBA" transform="translate(1320,682)"/>





<path d="M0 0 C0 0.99 0 1.98 0 3 C-1.65 3.33 -3.3 3.66 -5 4 C-5 3.34 -5 2.68 -5 2 C-5.66 1.67 -6.32 1.34 -7 1 C-4 0 -4 0 0 0 Z " fill="#ECE5D6" transform="translate(1477,1160)"/>
</svg>